<svg xmlns="http://www.w3.org/2000/svg" fill="none" viewBox="0 0 16 16"><path fill="#0EA0A0" fill-rule="evenodd" d="M11.7 10.4l2.5-2.5a4.2 4.2 0 00-6-6l-2 2h.2a5 5 0 012 .3l1.1-1A2.4 2.4 0 0113 6.6l-2.5 2.5c-.4.5-1 .7-1.7.7H8A2.4 2.4 0 016.4 8a1.3 1.3 0 00-.2 0v.1l-.3.2-1 1a4.2 4.2 0 004.5 2.1h.3a4.5 4.5 0 01.3-.1 4 4 0 001.7-1zM1.4 14.8a4.2 4.2 0 006 0l2-2.1a5.3 5.3 0 01-.6 0 5.3 5.3 0 01-1.2-.1h-.1l-.4-.1-1 1A2.4 2.4 0 012.6 10l1-1 1.5-1.5c.5-.5 1.1-.7 1.8-.7h.5a2.4 2.4 0 011.7 1.7h.2l.1-.1.2-.2 1-1a4.2 4.2 0 00-2.6-2h-.1a4.6 4.6 0 00-.5-.2 5.4 5.4 0 00-1 0 4.2 4.2 0 00-.5 0 2.7 2.7 0 00-.5.2h-.1a4.3 4.3 0 00-1.5 1L1.4 8.8a4.2 4.2 0 000 6z" clip-rule="evenodd"></path></svg>